<svg width="17" height="17" viewBox="0 0 17 17" fill="none" xmlns="http://www.w3.org/2000/svg">
<path d="M7.02059 16.5C6.73725 16.5 6.49975 16.4042 6.30809 16.2125C6.11642 16.0208 6.02059 15.7833 6.02059 15.5V9.5L0.220588 2.1C-0.0294118 1.76667 -0.0669117 1.41667 0.108088 1.05C0.283088 0.683333 0.587255 0.5 1.02059 0.5H15.0206C15.4539 0.5 15.7581 0.683333 15.9331 1.05C16.1081 1.41667 16.0706 1.76667 15.8206 2.1L10.0206 9.5V15.5C10.0206 15.7833 9.92475 16.0208 9.73309 16.2125C9.54142 16.4042 9.30392 16.5 9.02059 16.5H7.02059ZM8.02059 8.8L12.9706 2.5H3.07059L8.02059 8.8Z" fill="#0960B5"/>
</svg>
